<svg id="wave" style="transform:rotate(0deg); transition: 0.3s" viewBox="0 0 1440 490" version="1.1" xmlns="http://www.w3.org/2000/svg"><defs><linearGradient id="sw-gradient-0" x1="0" x2="0" y1="1" y2="0"><stop stop-color="rgba(243, 106, 62, 1)" offset="0%"></stop><stop stop-color="rgba(194.781, 246.31, 231.471, 1)" offset="100%"></stop></linearGradient></defs><path style="transform:translate(0, 0px); opacity:1" fill="url(#sw-gradient-0)" d="M0,147L12.6,122.5C25.3,98,51,49,76,89.8C101.1,131,126,261,152,277.7C176.8,294,202,196,227,204.2C252.6,212,278,327,303,334.8C328.4,343,354,245,379,220.5C404.2,196,429,245,455,261.3C480,278,505,261,531,285.8C555.8,310,581,376,606,359.3C631.6,343,657,245,682,220.5C707.4,196,733,245,758,245C783.2,245,808,196,834,187.8C858.9,180,884,212,909,228.7C934.7,245,960,245,985,228.7C1010.5,212,1036,180,1061,163.3C1086.3,147,1112,147,1137,147C1162.1,147,1187,147,1213,138.8C1237.9,131,1263,114,1288,114.3C1313.7,114,1339,131,1364,179.7C1389.5,229,1415,310,1440,318.5C1465.3,327,1491,261,1516,228.7C1541.1,196,1566,196,1592,187.8C1616.8,180,1642,163,1667,155.2C1692.6,147,1718,147,1743,179.7C1768.4,212,1794,278,1806,310.3L1818.9,343L1818.9,490L1806.3,490C1793.7,490,1768,490,1743,490C1717.9,490,1693,490,1667,490C1642.1,490,1617,490,1592,490C1566.3,490,1541,490,1516,490C1490.5,490,1465,490,1440,490C1414.7,490,1389,490,1364,490C1338.9,490,1314,490,1288,490C1263.2,490,1238,490,1213,490C1187.4,490,1162,490,1137,490C1111.6,490,1086,490,1061,490C1035.8,490,1011,490,985,490C960,490,935,490,909,490C884.2,490,859,490,834,490C808.4,490,783,490,758,490C732.6,490,707,490,682,490C656.8,490,632,490,606,490C581.1,490,556,490,531,490C505.3,490,480,490,455,490C429.5,490,404,490,379,490C353.7,490,328,490,303,490C277.9,490,253,490,227,490C202.1,490,177,490,152,490C126.3,490,101,490,76,490C50.5,490,25,490,13,490L0,490Z"></path><defs><linearGradient id="sw-gradient-1" x1="0" x2="0" y1="1" y2="0"><stop stop-color="rgba(243, 106, 62, 1)" offset="0%"></stop><stop stop-color="rgba(11, 255, 151.669, 1)" offset="100%"></stop></linearGradient></defs><path style="transform:translate(0, 50px); opacity:0.9" fill="url(#sw-gradient-1)" d="M0,294L12.6,310.3C25.3,327,51,359,76,359.3C101.1,359,126,327,152,318.5C176.8,310,202,327,227,351.2C252.6,376,278,408,303,375.7C328.4,343,354,245,379,171.5C404.2,98,429,49,455,89.8C480,131,505,261,531,294C555.8,327,581,261,606,220.5C631.6,180,657,163,682,196C707.4,229,733,310,758,318.5C783.2,327,808,261,834,245C858.9,229,884,261,909,245C934.7,229,960,163,985,179.7C1010.5,196,1036,294,1061,351.2C1086.3,408,1112,425,1137,383.8C1162.1,343,1187,245,1213,204.2C1237.9,163,1263,180,1288,171.5C1313.7,163,1339,131,1364,114.3C1389.5,98,1415,98,1440,122.5C1465.3,147,1491,196,1516,220.5C1541.1,245,1566,245,1592,220.5C1616.8,196,1642,147,1667,163.3C1692.6,180,1718,261,1743,277.7C1768.4,294,1794,245,1806,220.5L1818.9,196L1818.9,490L1806.3,490C1793.7,490,1768,490,1743,490C1717.9,490,1693,490,1667,490C1642.1,490,1617,490,1592,490C1566.3,490,1541,490,1516,490C1490.5,490,1465,490,1440,490C1414.7,490,1389,490,1364,490C1338.9,490,1314,490,1288,490C1263.2,490,1238,490,1213,490C1187.4,490,1162,490,1137,490C1111.6,490,1086,490,1061,490C1035.8,490,1011,490,985,490C960,490,935,490,909,490C884.2,490,859,490,834,490C808.4,490,783,490,758,490C732.6,490,707,490,682,490C656.8,490,632,490,606,490C581.1,490,556,490,531,490C505.3,490,480,490,455,490C429.5,490,404,490,379,490C353.7,490,328,490,303,490C277.9,490,253,490,227,490C202.1,490,177,490,152,490C126.3,490,101,490,76,490C50.5,490,25,490,13,490L0,490Z"></path><defs><linearGradient id="sw-gradient-2" x1="0" x2="0" y1="1" y2="0"><stop stop-color="rgba(243, 106, 62, 0.58)" offset="0%"></stop><stop stop-color="rgba(43.676, 36.375, 20.235, 0.17)" offset="100%"></stop></linearGradient></defs><path style="transform:translate(0, 100px); opacity:0.8" fill="url(#sw-gradient-2)" d="M0,294L12.6,285.8C25.3,278,51,261,76,236.8C101.1,212,126,180,152,138.8C176.8,98,202,49,227,81.7C252.6,114,278,229,303,228.7C328.4,229,354,114,379,65.3C404.2,16,429,33,455,89.8C480,147,505,245,531,269.5C555.8,294,581,245,606,196C631.6,147,657,98,682,114.3C707.4,131,733,212,758,269.5C783.2,327,808,359,834,318.5C858.9,278,884,163,909,114.3C934.7,65,960,82,985,122.5C1010.5,163,1036,229,1061,220.5C1086.3,212,1112,131,1137,89.8C1162.1,49,1187,49,1213,114.3C1237.9,180,1263,310,1288,318.5C1313.7,327,1339,212,1364,147C1389.5,82,1415,65,1440,114.3C1465.3,163,1491,278,1516,277.7C1541.1,278,1566,163,1592,122.5C1616.8,82,1642,114,1667,163.3C1692.6,212,1718,278,1743,261.3C1768.4,245,1794,147,1806,98L1818.9,49L1818.9,490L1806.3,490C1793.7,490,1768,490,1743,490C1717.9,490,1693,490,1667,490C1642.1,490,1617,490,1592,490C1566.3,490,1541,490,1516,490C1490.5,490,1465,490,1440,490C1414.7,490,1389,490,1364,490C1338.9,490,1314,490,1288,490C1263.2,490,1238,490,1213,490C1187.4,490,1162,490,1137,490C1111.6,490,1086,490,1061,490C1035.8,490,1011,490,985,490C960,490,935,490,909,490C884.2,490,859,490,834,490C808.4,490,783,490,758,490C732.6,490,707,490,682,490C656.8,490,632,490,606,490C581.1,490,556,490,531,490C505.3,490,480,490,455,490C429.5,490,404,490,379,490C353.7,490,328,490,303,490C277.9,490,253,490,227,490C202.1,490,177,490,152,490C126.3,490,101,490,76,490C50.5,490,25,490,13,490L0,490Z"></path></svg>
